<svg width="23" height="17" viewBox="0 0 23 17" fill="none" xmlns="http://www.w3.org/2000/svg">
<path fill-rule="evenodd" clip-rule="evenodd" d="M1.444 16.7665C1.45059 16.7666 1.45719 16.7667 1.4638 16.7667H17.3803L1.444 16.7665ZM21.4763 0.031359C21.4689 0.0312661 21.4615 0.0312195 21.4541 0.0312195H1.4638L21.4763 0.031359ZM21.7871 16.2725L11.5037 16.2723V11.546H14.0554L16.3031 13.7937C16.3495 13.8401 16.4122 13.8662 16.4777 13.8662L22.7001 13.8664V15.3595C22.7001 15.863 22.2905 16.2725 21.7871 16.2725ZM0.216675 15.3593V13.8662H6.03721C6.10276 13.8662 6.16541 13.8401 6.21181 13.7937L8.45954 11.546H11.0106V16.2723H1.13027C0.626778 16.2723 0.216675 15.8628 0.216675 15.3593ZM22.7001 13.3722L16.5798 13.372L14.4046 11.1968V8.64512L22.7001 8.64526V13.3722ZM5.93396 13.372H0.216675V8.64512H8.10977V11.1968L5.93396 13.372ZM13.9104 11.0518H8.6034V5.74482H13.9104V11.0518ZM22.7001 8.15221L14.4046 8.15207V5.60038L16.5798 3.42457L22.7001 3.42472V8.15221ZM8.10977 8.15207H0.216675V3.42457H5.93454L8.10977 5.60096V8.15207ZM14.0554 5.25176H11.5037V0.524271L21.7871 0.524412C22.2905 0.524412 22.7001 0.934515 22.7001 1.43801V2.93166L16.4777 2.93152C16.4122 2.93152 16.3495 2.95762 16.3031 3.00403L14.0554 5.25176ZM11.0101 5.25176H8.45896L6.21123 3.00403C6.16483 2.95704 6.10218 2.93152 6.03663 2.93152H0.216675V1.43787C0.216675 0.934374 0.626778 0.524271 1.13027 0.524271H11.0101V5.25176Z" fill="#CD9834"/>
</svg>
