<svg width="21" height="20" viewBox="0 0 21 20" fill="none" xmlns="http://www.w3.org/2000/svg">
<path fill-rule="evenodd" clip-rule="evenodd" d="M5.20919 7.15942C5.20919 4.30995 7.51913 2 10.3686 2C13.2181 2 15.528 4.30995 15.528 7.15942V7.79711C15.528 9.32793 15.7359 10.685 16.0527 11.6353C16.2122 12.1141 16.3869 12.4513 16.5471 12.6546C16.6657 12.8051 16.7366 12.8355 16.7528 12.8406C17.1336 12.8446 17.441 13.1545 17.441 13.5362V13.6812C17.441 14.0654 17.1296 14.3768 16.7454 14.3768H3.99179C3.60759 14.3768 3.29614 14.0654 3.29614 13.6812V13.5362C3.29614 13.1545 3.60363 12.8446 3.98443 12.8406C4.00067 12.8355 4.07145 12.8051 4.19006 12.6546C4.35027 12.4513 4.52497 12.1141 4.68457 11.6353C5.00133 10.685 5.20919 9.32793 5.20919 7.79711V7.15942ZM3.98083 12.8415L3.98271 12.8411L3.98161 12.8414L3.98083 12.8415Z" fill="white"/>
<path d="M8.45542 15.5652C8.19278 15.5652 7.95253 15.7131 7.83428 15.9476C7.71601 16.1822 7.73992 16.4633 7.89607 16.6744C8.47494 17.4573 9.34939 18 10.3684 18C11.3875 18 12.262 17.4573 12.8409 16.6744C12.997 16.4633 13.0209 16.1822 12.9026 15.9476C12.7844 15.7131 12.5442 15.5652 12.2815 15.5652H8.45542Z" fill="white"/>
</svg>
