<svg width="21" height="21" viewBox="0 0 21 21" fill="none" xmlns="http://www.w3.org/2000/svg">
<path d="M18.0557 13.3971C17.8637 15.5331 16.3197 16.9331 14.0798 16.9331H6.87984C4.67186 16.9331 2.87988 15.1411 2.87988 12.9331V7.33319C2.87988 5.15722 4.19187 3.63723 6.23185 3.38124C6.43984 3.34924 6.65584 3.33324 6.87984 3.33324H14.0798C14.2878 3.33324 14.4878 3.34124 14.6798 3.37324C16.5917 3.59723 17.8877 4.93322 18.0557 6.8692C18.0797 7.1012 17.8877 7.29319 17.6557 7.29319H16.4157C15.6477 7.29319 14.9358 7.58919 14.4238 8.11718C13.8158 8.70918 13.5118 9.54117 13.5838 10.3732C13.7118 11.8291 14.9918 12.9731 16.5117 12.9731H17.6557C17.8877 12.9731 18.0797 13.1651 18.0557 13.3971Z" />
<path d="M18.8799 9.30857V10.9566C18.8799 11.3966 18.5279 11.7565 18.0799 11.7725H16.5119C15.6479 11.7725 14.8559 11.1406 14.7839 10.2766C14.7359 9.77257 14.9279 9.30057 15.2639 8.97258C15.5599 8.66858 15.9679 8.4926 16.4159 8.4926H18.0799C18.5279 8.5086 18.8799 8.86858 18.8799 9.30857Z" />
</svg>
