<svg width="17" height="16" viewBox="0 0 17 16" fill="none" xmlns="http://www.w3.org/2000/svg">
<path fill-rule="evenodd" clip-rule="evenodd" d="M16.3687 8C16.3687 12.4182 12.7869 16 8.36865 16C3.95037 16 0.368652 12.4182 0.368652 8C0.368652 3.58172 3.95037 0 8.36865 0C12.7869 0 16.3687 3.58172 16.3687 8ZM10.7687 5.6C10.7687 6.92552 9.69417 8 8.36865 8C7.04313 8 5.96865 6.92552 5.96865 5.6C5.96865 4.27452 7.04313 3.2 8.36865 3.2C9.69417 3.2 10.7687 4.27452 10.7687 5.6ZM8.36865 14.8C9.79585 14.8 11.1204 14.3603 12.2142 13.609C12.6973 13.2771 12.9037 12.645 12.6229 12.1306C12.0407 11.0642 10.8408 10.4 8.36857 10.4C5.8964 10.4 4.69663 11.0642 4.11436 12.1306C3.83349 12.645 4.03993 13.277 4.52302 13.6089C5.6168 14.3602 6.94137 14.8 8.36865 14.8Z" fill="white"/>
</svg>
