<svg width="24" height="24" viewBox="0 0 24 24" fill="none" xmlns="http://www.w3.org/2000/svg">
<path fill-rule="evenodd" clip-rule="evenodd" d="M15.9477 4.28373C16.4252 4.04495 17.0059 4.23852 17.2447 4.71609C18.3799 6.98644 18.9903 9.6495 18.9903 12.3992C18.9903 15.1577 18.3762 17.7168 17.2522 20.067C17.0218 20.5487 16.4446 20.7524 15.9629 20.5221C15.4812 20.2917 15.2775 19.7145 15.5079 19.2328C16.5108 17.1358 17.0568 14.8611 17.0568 12.3992C17.0568 9.92834 16.507 7.56421 15.5153 5.58079C15.2765 5.10323 15.4701 4.52251 15.9477 4.28373ZM12.507 5.81192C12.9949 5.59507 13.5663 5.81481 13.7831 6.30272C14.6047 8.15139 15.1232 10.3148 15.1232 12.3992C15.1232 14.4904 14.6016 16.5575 13.7831 18.3991C13.5663 18.8871 12.9949 19.1068 12.507 18.8899C12.0191 18.6731 11.7994 18.1018 12.0162 17.6139C12.7446 15.9751 13.1897 14.1752 13.1897 12.3992C13.1897 10.6166 12.7414 8.71969 12.0162 7.088C11.7994 6.60009 12.0191 6.02877 12.507 5.81192ZM8.98705 7.57066C9.46461 7.33187 10.0453 7.52544 10.2841 8.00301C10.943 9.32084 11.2563 10.9242 11.2563 12.3991C11.2563 13.8906 10.9366 15.3825 10.2972 16.7679C10.0734 17.2527 9.49905 17.4643 9.01427 17.2406C8.52948 17.0168 8.31786 16.4425 8.54161 15.9577C9.06228 14.8295 9.32272 13.6145 9.32272 12.3991C9.32272 11.167 9.0559 9.87012 8.55469 8.86771C8.31591 8.39015 8.50948 7.80944 8.98705 7.57066ZM5.55809 9.19045C6.04885 8.98012 6.61719 9.20744 6.82753 9.6982C7.16568 10.4872 7.38909 11.4864 7.38909 12.3992C7.38909 13.3282 7.15848 14.2315 6.82754 15.0036C6.61721 15.4944 6.04887 15.7217 5.55811 15.5114C5.06735 15.3011 4.84001 14.7327 5.05034 14.242C5.29946 13.6607 5.45556 13.0171 5.45556 12.3992C5.45556 11.7653 5.29226 11.0243 5.05035 10.4599C4.84001 9.96914 5.06734 9.40079 5.55809 9.19045Z" fill="white"/>
</svg>
