<svg width="17" height="17" viewBox="0 0 17 17" fill="none" xmlns="http://www.w3.org/2000/svg">
<path d="M16.5959 7.42616L9.58755 0.426163C9.39206 0.230913 9.13576 0.133163 8.8797 0.133163C8.62365 0.133163 8.36735 0.230913 8.17186 0.426163L1.16353 7.42616C0.772563 7.81766 0.792086 8.43016 1.18305 8.82066C1.57502 9.21316 2.14795 9.27091 2.54016 8.87916L2.88207 8.53741V15.1332C2.88207 15.6859 3.32985 16.1332 3.88326 16.1332H7.88803V12.1332H9.89041V16.1332H13.8952C14.4486 16.1332 14.8964 15.6859 14.8964 15.1332V8.55691L15.1955 8.85566C15.5864 9.24616 16.1839 9.21116 16.5761 8.82041C16.9673 8.43016 16.9878 7.81666 16.5959 7.42616Z" fill="white"/>
</svg>
