<svg width="17" height="16" viewBox="0 0 17 16" fill="none" xmlns="http://www.w3.org/2000/svg">
<path fill-rule="evenodd" clip-rule="evenodd" d="M2.37031 7.00538C2.37031 5.67828 2.8975 4.40553 3.8359 3.46713C4.77431 2.52873 6.04705 2.00154 7.37415 2.00154C8.70126 2.00154 9.974 2.52873 10.9124 3.46713C11.8508 4.40553 12.378 5.67828 12.378 7.00538C12.378 8.33248 11.8508 9.60523 10.9124 10.5436C9.974 11.482 8.70126 12.0092 7.37415 12.0092C6.04705 12.0092 4.77431 11.482 3.8359 10.5436C2.8975 9.60523 2.37031 8.33248 2.37031 7.00538ZM7.37415 0C6.26414 0 5.17001 0.263775 4.18194 0.769588C3.19387 1.2754 2.34013 2.00877 1.6911 2.90926C1.04206 3.80975 0.616296 4.85159 0.448896 5.94891C0.281496 7.04623 0.377251 8.16762 0.728268 9.22068C1.07929 10.2737 1.67552 11.2283 2.46783 12.0057C3.26014 12.7831 4.22585 13.3611 5.28538 13.6921C6.3449 14.0231 7.46791 14.0975 8.56186 13.9093C9.6558 13.7211 10.6894 13.2757 11.5774 12.6097C11.6058 12.6475 11.6369 12.6833 11.6705 12.7168L14.6728 15.7191C14.8615 15.9014 15.1143 16.0022 15.3767 16C15.6391 15.9977 15.8901 15.8924 16.0757 15.7069C16.2612 15.5213 16.3665 15.2703 16.3687 15.0079C16.371 14.7455 16.2701 14.4927 16.0878 14.304L13.0855 11.3017C13.0521 11.2682 13.0163 11.2371 12.9785 11.2086C13.759 10.1678 14.2344 8.93023 14.3512 7.6345C14.4681 6.33878 14.2218 5.03611 13.64 3.87248C13.0581 2.70884 12.1638 1.73021 11.0571 1.04625C9.95042 0.362281 8.67514 0 7.37415 0Z" fill="white"/>
</svg>
